<?xml version="1.0" standalone="no"?>
<!DOCTYPE svg PUBLIC "-//W3C//DTD SVG 20010904//EN"
 "http://www.w3.org/TR/2001/REC-SVG-20010904/DTD/svg10.dtd">
<svg version="1.0" xmlns="http://www.w3.org/2000/svg"
 width="256.000000pt" height="256.000000pt" viewBox="0 0 256.000000 256.000000"
 preserveAspectRatio="xMidYMid meet">
<metadata>
Created by potrace 1.14, written by Peter Selinger 2001-2017
</metadata>
<g transform="translate(0.000000,256.000000) scale(0.100000,-0.100000)"
fill="#000000" stroke="none">
<path d="M1194 2535 c-66 -20 -105 -44 -156 -96 l-49 -49 -136 1 c-175 1 -177
0 -178 -133 l-1 -93 -200 -6 c-109 -3 -200 -6 -202 -7 -2 -1 -9 -17 -16 -34
-10 -26 -12 -246 -11 -1043 0 -556 4 -1020 8 -1032 4 -11 15 -25 25 -29 9 -4
420 -8 912 -9 728 -1 904 1 942 12 70 20 141 81 174 150 l29 58 1 944 2 944
-24 24 c-23 23 -27 23 -219 23 l-195 0 0 95 c0 116 -13 135 -94 136 -28 0 -91
1 -140 1 l-88 1 -44 47 c-81 87 -230 128 -340 95z"/>
</g>
</svg>
